<svg xmlns="http://www.w3.org/2000/svg" viewBox="0 0 48 48"><title>user_closed-lock</title><g opacity="0.11"><path d="M34.76,20V9.68c0-5.34-4-9.68-9-9.68H22.27c-5,0-9,4.34-9,9.68V20a16.41,16.41,0,0,0-5,11.81A16,16,0,0,0,24,48,16,16,0,0,0,39.71,31.78,16.41,16.41,0,0,0,34.76,20Zm-18.52-2.3v-8c0-3.68,2.7-6.68,6-6.68h3.46c3.33,0,6,3,6,6.68v8q-.61-.36-1.26-.66l0,0-.18-.08L30,16.79l-.13-.06-.4-.16h0a15.39,15.39,0,0,0-4.4-1H25l-.37,0H23.41l-.37,0h-.11a15.39,15.39,0,0,0-4.4,1h0l-.4.16-.13.06-.27.12-.18.08,0,0Q16.86,17.31,16.24,17.67ZM24,45A13,13,0,0,1,11.29,31.78a13.32,13.32,0,0,1,6.49-11.53l.18-.11.2-.11.36-.18.11-.06a12.42,12.42,0,0,1,4.22-1.18h0l.52,0h.06l.53,0,.53,0h.06l.52,0h0a12.42,12.42,0,0,1,4.22,1.18l.11.06.36.18.2.11.18.11a13.32,13.32,0,0,1,6.49,11.53A13,13,0,0,1,24,45Z"/><path d="M28.43,29.33A4.43,4.43,0,1,0,21,32.57l-1.07,4.76a1.66,1.66,0,0,0,0,.32c0,1.3,1.27,2.28,3,2.28h2.32c1.69,0,3-1,3-2.28a1.66,1.66,0,0,0,0-.32L27,32.57A4.42,4.42,0,0,0,28.43,29.33Zm-5.35,7.6L24,32.79l.92,4.14Zm1.57-6.33a1.5,1.5,0,0,0-.65.67,1.5,1.5,0,0,0-.65-.67,1.43,1.43,0,1,1,1.3,0Z"/></g><circle cx="24" cy="31" r="15" fill="none" stroke="#000" stroke-linecap="round" stroke-linejoin="round" stroke-width="4"/><path d="M32,18V10a8,8,0,0,0-16,0v8" fill="none" stroke="#000" stroke-linecap="round" stroke-linejoin="round" stroke-width="4"/><path d="M21.9,31.4a4,4,0,1,1,4.2,0h0L28,39H20l1.9-7.6Z" fill="none" stroke="#000" stroke-linecap="round" stroke-linejoin="round" stroke-width="2"/></svg>