<svg xmlns="http://www.w3.org/2000/svg" viewBox="0 0 48 48"><title>icon__input_number</title><line x1="29" y1="2" x2="43" y2="2" fill="none" stroke="#000" stroke-linecap="round" stroke-linejoin="round" stroke-width="4"/><line x1="29" y1="46" x2="43" y2="46" fill="none" stroke="#000" stroke-linecap="round" stroke-linejoin="round" stroke-width="4"/><line x1="36" y1="46" x2="36" y2="2" fill="none" stroke="#000" stroke-linecap="round" stroke-linejoin="round" stroke-width="4"/><path d="M30,38H6a4,4,0,0,1-4-4V14a4,4,0,0,1,4-4H30" fill="none" stroke="#000" stroke-linecap="round" stroke-linejoin="round" stroke-width="4"/><path d="M42,10h0a4,4,0,0,1,4,4V34a4,4,0,0,1-4,4h0" fill="none" stroke="#000" stroke-linecap="round" stroke-linejoin="round" stroke-width="4"/><polyline points="12 19 17 16 17 32" fill="none" stroke="#000" stroke-linecap="round" stroke-linejoin="round" stroke-width="4"/><line x1="11.75" y1="32" x2="22.25" y2="32" fill="none" stroke="#000" stroke-linecap="round" stroke-linejoin="round" stroke-width="4"/></svg>