<svg xmlns="http://www.w3.org/2000/svg" viewBox="0 0 48 48"><title>icon__save</title><path d="M44,46H4a2,2,0,0,1-2-2V4A2,2,0,0,1,4,2H36l10,9V44A2,2,0,0,1,44,46Z" fill="none" stroke="#000" stroke-linecap="round" stroke-linejoin="round" stroke-width="4"/><polyline points="10 46 10 28 38 28 38 46" fill="none" stroke="#000" stroke-linecap="round" stroke-linejoin="round" stroke-width="4"/><polyline points="32 2 32 16 10 16 10 2" fill="none" stroke="#000" stroke-linecap="round" stroke-linejoin="round" stroke-width="2"/><line x1="26" y1="7" x2="26" y2="11" fill="none" stroke="#000" stroke-linecap="round" stroke-linejoin="round" stroke-width="4"/><line x1="15" y1="33" x2="33" y2="33" fill="none" stroke="#000" stroke-linecap="round" stroke-linejoin="round" stroke-width="2"/><line x1="15" y1="37" x2="33" y2="37" fill="none" stroke="#000" stroke-linecap="round" stroke-linejoin="round" stroke-width="2"/><line x1="21" y1="41" x2="33" y2="41" fill="none" stroke="#000" stroke-linecap="round" stroke-linejoin="round" stroke-width="2"/></svg>