<svg xmlns="http://www.w3.org/2000/svg" viewBox="0 0 48 48"><title>sidebar_media</title><path d="M35,9h2.8a2,2,0,0,1,1.76,1.06l6.5,12.18A7.94,7.94,0,0,1,47,26V40a2,2,0,0,1-2,2H3a2,2,0,0,1-2-2V26a7.94,7.94,0,0,1,.94-3.76l6.5-12.18A2,2,0,0,1,10.2,9H13" fill="none" stroke="#000" stroke-miterlimit="10" stroke-width="2"/><rect x="18" y="33" width="12" height="4" rx="2" fill="none" stroke="#000" stroke-miterlimit="10" stroke-width="2"/><path d="M13,13V8a2,2,0,0,1,2-2H33a2,2,0,0,1,2,2v5" fill="none" stroke="#000" stroke-miterlimit="10" stroke-width="2"/><path d="M10,20V15a2.33,2.33,0,0,1,2.55-2h22.9A2.33,2.33,0,0,1,38,15v5" fill="none" stroke="#000" stroke-miterlimit="10" stroke-width="2"/><path d="M7,24V22c0-1.1,1.38-2,3.09-2H37.91c1.71,0,3.09.9,3.09,2v2" fill="none" stroke="#000" stroke-miterlimit="10" stroke-width="2"/><path d="M2,24H13.93a2,2,0,0,1,1.66.89l.82,1.22a2,2,0,0,0,1.66.89H29.93a2,2,0,0,0,1.66-.89l.82-1.22A2,2,0,0,1,34.07,24H46" fill="none" stroke="#000" stroke-miterlimit="10" stroke-width="2"/></svg>