<svg xmlns="http://www.w3.org/2000/svg" viewBox="0 0 48 48"><title>sidebar_roles</title><circle cx="9.61" cy="9.09" r="3.59"/><path d="M14.54,30.34a4.74,4.74,0,0,1-1.29-.29,4.79,4.79,0,0,1-2.75-6.22l3.84-9.94a2.09,2.09,0,0,0-.85-.21h-2a1.93,1.93,0,0,0-1.4.61h-1a2,2,0,0,0-1.4-.61h-2A2,2,0,0,0,3.85,15L.14,24.59a2,2,0,0,0,3.77,1.46l1.78-4.6v5.4L2,39.92a2,2,0,0,0,1.39,2.51,2.15,2.15,0,0,0,.56.07A2,2,0,0,0,5.84,41L9.61,27.83l3.55,12.41,2.1-7.36Z"/><path d="M38.39,12.68A3.59,3.59,0,1,0,34.8,9.09,3.59,3.59,0,0,0,38.39,12.68Z"/><path d="M47.86,24.59,44.15,15a2,2,0,0,0-1.89-1.29h-2a2,2,0,0,0-1.4.61h-1a1.93,1.93,0,0,0-1.4-.61h-2a2.05,2.05,0,0,0-.85.21l3.84,9.94a4.75,4.75,0,0,1-.09,3.68,4.8,4.8,0,0,1-2.66,2.54,4.72,4.72,0,0,1-1.29.28l-.73,2.55,2.11,7.37,3.55-12.42L42.16,41A2,2,0,0,0,44.1,42.5a2.2,2.2,0,0,0,.56-.07,2,2,0,0,0,1.39-2.51L42.31,26.85v-5.4L44.09,26a2,2,0,1,0,3.77-1.45Z"/><path d="M24,10.55a4.27,4.27,0,1,0-4.27-4.27A4.27,4.27,0,0,0,24,10.55Z"/><path d="M28.67,27.39V21l2.11,5.47a2.4,2.4,0,1,0,4.48-1.73L30.85,13.28a2.4,2.4,0,0,0-2.24-1.54H26.27a2.36,2.36,0,0,0-1.67.72l1.12,8.21L24,22.13l-1.72-1.46,1.12-8.21a2.34,2.34,0,0,0-1.66-.72H19.39a2.4,2.4,0,0,0-2.24,1.54L12.74,24.7a2.4,2.4,0,1,0,4.48,1.73L19.33,21v6.43L14.9,42.92a2.39,2.39,0,0,0,1.65,3,2.16,2.16,0,0,0,.66.1,2.41,2.41,0,0,0,2.31-1.75L24,28.55l4.48,15.69A2.42,2.42,0,0,0,30.79,46a2.11,2.11,0,0,0,.66-.1,2.4,2.4,0,0,0,1.66-3Z"/></svg>