<svg xmlns="http://www.w3.org/2000/svg" viewBox="0 0 48 48"><title>sidebar_courses</title><rect x="1" y="5" width="46" height="38" rx="3" fill="none" stroke="#000" stroke-miterlimit="10" stroke-width="2"/><rect x="5" y="9" width="38" height="21" rx="2" fill="none" stroke="#000" stroke-miterlimit="10" stroke-width="2"/><polygon points="10 36 5 39 5 33 10 36" fill="none" stroke="#000" stroke-linecap="round" stroke-linejoin="round" stroke-width="2"/><line x1="14" y1="33" x2="14" y2="39" fill="none" stroke="#000" stroke-linecap="round" stroke-linejoin="round" stroke-width="2"/><line x1="17" y1="33" x2="17" y2="39" fill="none" stroke="#000" stroke-linecap="round" stroke-linejoin="round" stroke-width="2"/><line x1="21" y1="36" x2="30" y2="36" fill="none" stroke="#000" stroke-linecap="round" stroke-linejoin="round" stroke-width="2"/><line x1="34" y1="36" x2="43" y2="36" fill="none" stroke="#000" stroke-linecap="round" stroke-linejoin="round" stroke-width="2"/><rect x="30" y="33" width="3" height="6" stroke-width="2" stroke="#000" stroke-linecap="round" stroke-linejoin="round" fill="none"/><circle cx="24" cy="16" r="4" fill="none" stroke="#000" stroke-linecap="round" stroke-linejoin="round" stroke-width="2"/><path d="M26,20l.6.24a7,7,0,0,1,4.4,6.5V27H17v-.26a7,7,0,0,1,4.4-6.5L22,20" fill="none" stroke="#000" stroke-linecap="round" stroke-linejoin="round" stroke-width="2"/></svg>