<svg xmlns="http://www.w3.org/2000/svg" viewBox="0 0 48 48"><title>sidebar_users</title><circle cx="24" cy="8" r="5" fill="none" stroke="#000" stroke-miterlimit="10" stroke-width="2"/><path d="M15,22v-.53a4,4,0,0,1,2.21-3.58L21,16l1-3" fill="none" stroke="#000" stroke-linecap="round" stroke-linejoin="round" stroke-width="2"/><path d="M26,13l1,3,3.79,1.89A4,4,0,0,1,33,21.47V22" fill="none" stroke="#000" stroke-linecap="round" stroke-linejoin="round" stroke-width="2"/><circle cx="38" cy="31" r="5" fill="none" stroke="#000" stroke-miterlimit="10" stroke-width="2"/><path d="M29,45v-.53a4,4,0,0,1,2.21-3.58L35,39l1-3" fill="none" stroke="#000" stroke-linecap="round" stroke-linejoin="round" stroke-width="2"/><path d="M40,36l1,3,3.79,1.89A4,4,0,0,1,47,44.47V45" fill="none" stroke="#000" stroke-linecap="round" stroke-linejoin="round" stroke-width="2"/><circle cx="10" cy="31" r="5" fill="none" stroke="#000" stroke-miterlimit="10" stroke-width="2"/><path d="M1,45v-.53a4,4,0,0,1,2.21-3.58L7,39l1-3" fill="none" stroke="#000" stroke-linecap="round" stroke-linejoin="round" stroke-width="2"/><path d="M12,36l1,3,3.79,1.89A4,4,0,0,1,19,44.47V45" fill="none" stroke="#000" stroke-linecap="round" stroke-linejoin="round" stroke-width="2"/><line x1="24" y1="19.5" x2="24" y2="26.5" fill="none" stroke="#000" stroke-linecap="round" stroke-linejoin="round" stroke-width="2"/><line x1="17.94" y1="30" x2="24" y2="26.5" fill="none" stroke="#000" stroke-linecap="round" stroke-linejoin="round" stroke-width="2"/><line x1="23.94" y1="26.5" x2="30" y2="30" fill="none" stroke="#000" stroke-linecap="round" stroke-linejoin="round" stroke-width="2"/></svg>