<svg xmlns="http://www.w3.org/2000/svg" viewBox="0 0 48 48"><title>sidebar_review</title><circle cx="13" cy="21.67" r="6.67" fill="none" stroke="#000" stroke-miterlimit="10" stroke-width="2"/><path d="M15.67,28.33l1.33,4,5.05,2.53A5.33,5.33,0,0,1,25,39.63V43H1V39.63a5.33,5.33,0,0,1,3-4.77L9,32.33l1.33-4" fill="none" stroke="#000" stroke-linecap="round" stroke-linejoin="round" stroke-width="2"/><path d="M47,15.5c0,5.25-5.6,9.5-12.5,9.5a15.74,15.74,0,0,1-5.59-1c-.74-.28-4.91,4-6.91,3,0,0,3-5.24,2.31-6A8,8,0,0,1,22,15.5C22,10.25,27.6,6,34.5,6S47,10.25,47,15.5Z" fill="none" stroke="#000" stroke-linecap="round" stroke-linejoin="round" stroke-width="2"/><polygon points="32.93 13.69 34.63 10.09 36.46 13.63 40.41 14.13 37.61 16.96 38.35 20.88 34.79 19.09 31.3 21 31.9 17.06 29 14.33 32.93 13.69" fill="none" stroke="#000" stroke-linecap="round" stroke-linejoin="round" stroke-width="2"/></svg>