<svg xmlns="http://www.w3.org/2000/svg" viewBox="0 0 48 48"><title>sidebar_review</title><circle cx="14" cy="20.67" r="6.67" fill="none" stroke="#000" stroke-miterlimit="10" stroke-width="4"/><path d="M16.67,27.33l1.33,4,5.05,2.53A5.33,5.33,0,0,1,26,38.63V42H2V38.63a5.33,5.33,0,0,1,3-4.77L10,31.33l1.33-4" fill="none" stroke="#000" stroke-linecap="round" stroke-linejoin="round" stroke-width="4"/><path d="M46,14c0,5-4.48,9-10,9A10.78,10.78,0,0,1,31.53,22c-.59-.27-3.93,3.78-5.53,2.84,0,0,2.41-5,1.85-5.68A8.27,8.27,0,0,1,26,14c0-5,4.48-9,10-9S46,9,46,14Z" fill="none" stroke="#000" stroke-linecap="round" stroke-linejoin="round" stroke-width="4"/><polygon points="34.75 12.07 36.11 9.15 37.57 12.02 40.73 12.43 38.48 14.73 39.08 17.9 36.23 16.45 33.44 18 33.92 14.81 31.6 12.59 34.75 12.07" fill="none" stroke="#000" stroke-linecap="round" stroke-linejoin="round" stroke-width="2"/></svg>