<svg xmlns="http://www.w3.org/2000/svg" viewBox="0 0 48 48"><title>sidebar_courses</title><rect x="2" y="4" width="44" height="40" rx="3" fill="none" stroke="#000" stroke-miterlimit="10" stroke-width="4"/><polygon points="12 36 7 39 7 33 12 36" fill="none" stroke="#000" stroke-linecap="round" stroke-linejoin="round" stroke-width="2"/><line x1="16" y1="33" x2="16" y2="39" fill="none" stroke="#000" stroke-linecap="round" stroke-linejoin="round" stroke-width="2"/><line x1="19" y1="33" x2="19" y2="39" fill="none" stroke="#000" stroke-linecap="round" stroke-linejoin="round" stroke-width="2"/><line x1="23" y1="36" x2="30" y2="36" fill="none" stroke="#000" stroke-linecap="round" stroke-linejoin="round" stroke-width="2"/><line x1="33" y1="36" x2="41" y2="36" fill="none" stroke="#000" stroke-linecap="round" stroke-linejoin="round" stroke-width="2"/><rect x="30" y="33" width="3" height="6" stroke-width="2" stroke="#000" stroke-linecap="round" stroke-linejoin="round" fill="none"/><circle cx="24" cy="13" r="4" fill="none" stroke="#000" stroke-linecap="round" stroke-linejoin="round" stroke-width="2"/><path d="M26,17l.6.24a7,7,0,0,1,4.4,6.5V24H17v-.26a7,7,0,0,1,4.4-6.5L22,17" fill="none" stroke="#000" stroke-linecap="round" stroke-linejoin="round" stroke-width="2"/><line x1="2" y1="29" x2="46" y2="29" fill="none" stroke="#000" stroke-linecap="round" stroke-linejoin="round" stroke-width="2"/></svg>