<svg xmlns="http://www.w3.org/2000/svg" viewBox="0 0 48 48"><title>sidebar_dashboard</title><circle cx="24" cy="24" r="23" fill="none" stroke="#000" stroke-miterlimit="10" stroke-width="2"/><circle cx="24" cy="24" r="19.17" fill="none" stroke="#000" stroke-miterlimit="10"/><line x1="24" y1="4.83" x2="24" y2="9.94" fill="none" stroke="#000" stroke-linecap="round" stroke-miterlimit="10"/><line x1="4.83" y1="24" x2="9.94" y2="24" fill="none" stroke="#000" stroke-linecap="round" stroke-miterlimit="10"/><line x1="10.45" y1="10.45" x2="14.06" y2="14.06" fill="none" stroke="#000" stroke-linecap="round" stroke-miterlimit="10"/><line x1="43.17" y1="24" x2="38.05" y2="24" fill="none" stroke="#000" stroke-linecap="round" stroke-miterlimit="10"/><line x1="37.55" y1="10.45" x2="33.94" y2="14.06" fill="none" stroke="#000" stroke-linecap="round" stroke-miterlimit="10"/><path d="M13.78,39.91a14,14,0,0,1,20.44,0" fill="none" stroke="#000" stroke-miterlimit="10"/><path d="M19.57,36.78a4.47,4.47,0,1,1,8.86,0" fill="none" stroke="#000" stroke-miterlimit="10"/><polyline points="22.62 31.67 21.44 16.33 24 12.5 26.56 16.33 25.38 31.67" fill="none" stroke="#000" stroke-linecap="round" stroke-linejoin="round"/><path d="M13.58,36.29a15.62,15.62,0,0,1-2-1.9l1.91-1.7a15.2,15.2,0,0,0,1.69,1.62Zm-2.88-3A16.81,16.81,0,0,1,9.23,31L11.5,29.8a14,14,0,0,0,1.25,2Zm-2-3.6a16.21,16.21,0,0,1-.84-2.64l2.49-.57A13.45,13.45,0,0,0,11,28.74Z"/></svg>