<svg xmlns="http://www.w3.org/2000/svg" viewBox="0 0 48 48"><title>icon__input_location</title><line x1="29" y1="2" x2="43" y2="2" fill="none" stroke="#000" stroke-linecap="round" stroke-linejoin="round" stroke-width="4"/><line x1="29" y1="46" x2="43" y2="46" fill="none" stroke="#000" stroke-linecap="round" stroke-linejoin="round" stroke-width="4"/><line x1="36" y1="46" x2="36" y2="2" fill="none" stroke="#000" stroke-linecap="round" stroke-linejoin="round" stroke-width="4"/><path d="M30,38H6a4,4,0,0,1-4-4V14a4,4,0,0,1,4-4H30" fill="none" stroke="#000" stroke-linecap="round" stroke-linejoin="round" stroke-width="4"/><path d="M42,10h0a4,4,0,0,1,4,4V34a4,4,0,0,1-4,4h0" fill="none" stroke="#000" stroke-linecap="round" stroke-linejoin="round" stroke-width="4"/><path d="M27,22c0-4.42-3.13-8-7-8s-7,3.58-7,8c0,0,0,.13,0,.35s0,.35.05.57a9.58,9.58,0,0,0,.3,1.63A14.67,14.67,0,0,0,15,28a48.7,48.7,0,0,0,5,6,48.7,48.7,0,0,0,5-6,14.67,14.67,0,0,0,1.63-3.45,9.58,9.58,0,0,0,.3-1.63c0-.22,0-.42.05-.57S27,22,27,22Zm-7-6a2,2,0,1,1-2,2A2,2,0,0,1,20,16Z"/></svg>