<svg xmlns="http://www.w3.org/2000/svg" viewBox="0 0 48 48"><title>icon__input_email</title><line x1="29" y1="2" x2="43" y2="2" fill="none" stroke="#000" stroke-linecap="round" stroke-linejoin="round" stroke-width="4"/><line x1="29" y1="46" x2="43" y2="46" fill="none" stroke="#000" stroke-linecap="round" stroke-linejoin="round" stroke-width="4"/><line x1="36" y1="46" x2="36" y2="2" fill="none" stroke="#000" stroke-linecap="round" stroke-linejoin="round" stroke-width="4"/><path d="M30,38H6a4,4,0,0,1-4-4V14a4,4,0,0,1,4-4H30" fill="none" stroke="#000" stroke-linecap="round" stroke-linejoin="round" stroke-width="4"/><path d="M42,10h0a4,4,0,0,1,4,4V34a4,4,0,0,1-4,4h0" fill="none" stroke="#000" stroke-linecap="round" stroke-linejoin="round" stroke-width="4"/><circle cx="18" cy="24" r="5" fill="none" stroke="#000" stroke-linecap="round" stroke-linejoin="round" stroke-width="2"/><path d="M23,20v6.51A1.49,1.49,0,0,0,24.49,28h.32a1.84,1.84,0,0,0,1.75-1.22A9,9,0,0,0,18.15,15,9,9,0,1,0,18,33" fill="none" stroke="#000" stroke-linecap="round" stroke-linejoin="round" stroke-width="2"/></svg>