<svg xmlns="http://www.w3.org/2000/svg" viewBox="0 0 48 48"><title>icon__settings</title><circle cx="24" cy="24" r="9" fill="none" stroke="#000" stroke-linecap="round" stroke-linejoin="round" stroke-width="4"/><path d="M45.81,21.2l-3.52-.14A18.48,18.48,0,0,0,39,13.19l2.43-2.64a22.26,22.26,0,0,0-3.94-3.94L34.81,9a18.29,18.29,0,0,0-7.87-3.26L26.8,2.26A23.88,23.88,0,0,0,24,2a26.16,26.16,0,0,0-2.8.19l-.14,3.52A18.48,18.48,0,0,0,13.19,9L10.55,6.61a22.26,22.26,0,0,0-3.94,3.94L9,13.19a18.29,18.29,0,0,0-3.26,7.87l-3.52.14A23.88,23.88,0,0,0,2,24a26.16,26.16,0,0,0,.19,2.8l3.52.14A18.48,18.48,0,0,0,9,34.81L6.61,37.45a22.26,22.26,0,0,0,3.94,3.94L13.19,39a18.29,18.29,0,0,0,7.87,3.26l.14,3.52A23.88,23.88,0,0,0,24,46a26.16,26.16,0,0,0,2.8-.19l.14-3.52A18.29,18.29,0,0,0,34.81,39l2.64,2.43a22.26,22.26,0,0,0,3.94-3.94L39,34.88A18.29,18.29,0,0,0,42.22,27l3.52-.14A25.08,25.08,0,0,0,46,24,26.16,26.16,0,0,0,45.81,21.2Z" fill="none" stroke="#000" stroke-linecap="round" stroke-linejoin="round" stroke-width="4"/></svg>