<svg xmlns="http://www.w3.org/2000/svg" viewBox="0 0 48 48">
  <line x1="15" y1="46" x2="33" y2="46" fill="none" stroke="currentColor" stroke-linecap="round" stroke-linejoin="round" stroke-width="4"/>
  <path d="M10.58,30A13.92,13.92,0,0,1,10,26" fill="none" stroke="currentColor" stroke-linecap="round" stroke-linejoin="round" stroke-width="4"/>
  <path d="M38,26A14,14,0,0,1,24,40h0a14,14,0,0,1-7-1.87" fill="none" stroke="currentColor" stroke-linecap="round" stroke-linejoin="round" stroke-width="4"/>
  <line x1="24" y1="40" x2="24" y2="46" fill="none" stroke="currentColor" stroke-linecap="round" stroke-linejoin="round" stroke-width="4"/>
  <line x1="38" y1="10" x2="10" y2="38" fill="none" stroke="currentColor" stroke-linecap="round" stroke-linejoin="round" stroke-width="4"/>
  <path d="M21.48,33.59A8,8,0,0,0,32,26V23.07" fill="none" stroke="currentColor" stroke-linecap="round" stroke-linejoin="round" stroke-width="4"/>
  <path d="M31.93,9A8,8,0,0,0,16,10V24.93" fill="none" stroke="currentColor" stroke-linecap="round" stroke-linejoin="round" stroke-width="4"/>
  <line x1="24" y1="10" x2="24" y2="10" fill="none" stroke="currentColor" stroke-linecap="round" stroke-linejoin="round" stroke-width="4"/>
  <line x1="24" y1="17" x2="24" y2="17" fill="none" stroke="currentColor" stroke-linecap="round" stroke-linejoin="round" stroke-width="4"/>
</svg>
