<svg id="Слой_1" data-name="Слой 1" xmlns="http://www.w3.org/2000/svg" viewBox="0 0 48 48"><path d="M12,48a4.51,4.51,0,0,0,4.41-3.6H7.59A4.51,4.51,0,0,0,12,48Z"/><path d="M24,41.26A2.28,2.28,0,0,0,24,41c0-.11,0-.21-.05-.32s0-.16-.05-.24a2.59,2.59,0,0,0-.14-.29,1.67,1.67,0,0,0-.12-.23,1.5,1.5,0,0,0-.24-.27.93.93,0,0,0-.13-.15,8.24,8.24,0,0,1-1.7-2l-.09-.16c-.1-.19-.21-.37-.3-.56s-.15-.36-.22-.54a1.8,1.8,0,0,1-.08-.21,6.65,6.65,0,0,1-.23-.76v0a8.39,8.39,0,0,1-.22-1.67h0c0-.08,0-.17,0-.25V30A8.4,8.4,0,1,0,3.6,30v3.35c0,.08,0,.17,0,.25h0a8.39,8.39,0,0,1-.22,1.67v0a6.65,6.65,0,0,1-.23.76,1.8,1.8,0,0,1-.08.21c-.07.18-.14.36-.22.54s-.2.37-.3.56l-.09.16a8.24,8.24,0,0,1-1.7,2,.93.93,0,0,0-.13.15,1.5,1.5,0,0,0-.24.27,1.67,1.67,0,0,0-.12.23,2.59,2.59,0,0,0-.14.29c0,.08,0,.16,0,.24s0,.21,0,.32a2.28,2.28,0,0,0,0,.26,2.45,2.45,0,0,0,0,.27.24.24,0,0,0,0,.08s0,0,0,0,0,0,0,.05a1.71,1.71,0,0,0,.27.54.86.86,0,0,0,.07.1,2,2,0,0,0,.42.4.53.53,0,0,0,.1.06,2.16,2.16,0,0,0,.55.27l.06,0a2.84,2.84,0,0,0,.66.1H21.78a2.84,2.84,0,0,0,.66-.1l.06,0a2.16,2.16,0,0,0,.55-.27.53.53,0,0,0,.1-.06,2,2,0,0,0,.42-.4.86.86,0,0,0,.07-.1,1.71,1.71,0,0,0,.27-.54s0,0,0-.05,0,0,0,0a.24.24,0,0,0,0-.08A2.45,2.45,0,0,0,24,41.26Z"/><path d="M6.4,18A20,20,0,1,1,30,41.6" fill="none" stroke="#000" stroke-linecap="round" stroke-linejoin="round" stroke-width="4"/><line x1="26" y1="11" x2="26" y2="22" fill="none" stroke="#000" stroke-linecap="round" stroke-linejoin="round" stroke-width="6"/><line x1="37" y1="32" x2="26" y2="22" fill="none" stroke="#000" stroke-linecap="round" stroke-linejoin="round" stroke-width="4"/></svg>
