<svg id="e2a20455-3278-4093-885a-80938f7f38bd" data-name="Слой 1" xmlns="http://www.w3.org/2000/svg" viewBox="0 0 48 48"><path d="M16.46,4A1.54,1.54,0,0,1,18,5.54V16.46A1.54,1.54,0,0,1,16.46,18H5.54A1.54,1.54,0,0,1,4,16.46V5.54A1.54,1.54,0,0,1,5.54,4H16.46m0-4H5.54A5.54,5.54,0,0,0,0,5.54V16.46A5.54,5.54,0,0,0,5.54,22H16.46A5.54,5.54,0,0,0,22,16.46V5.54A5.54,5.54,0,0,0,16.46,0Z"/><path d="M42.46,4A1.54,1.54,0,0,1,44,5.54V16.46A1.54,1.54,0,0,1,42.46,18H31.54A1.54,1.54,0,0,1,30,16.46V5.54A1.54,1.54,0,0,1,31.54,4H42.46m0-4H31.54A5.54,5.54,0,0,0,26,5.54V16.46A5.54,5.54,0,0,0,31.54,22H42.46A5.54,5.54,0,0,0,48,16.46V5.54A5.54,5.54,0,0,0,42.46,0Z"/><path d="M16.46,26H5.54A5.54,5.54,0,0,0,0,31.54V42.46A5.54,5.54,0,0,0,5.54,48H16.46A5.54,5.54,0,0,0,22,42.46V31.54A5.54,5.54,0,0,0,16.46,26Z"/><path d="M42.46,30A1.54,1.54,0,0,1,44,31.54V42.46A1.54,1.54,0,0,1,42.46,44H31.54A1.54,1.54,0,0,1,30,42.46V31.54A1.54,1.54,0,0,1,31.54,30H42.46m0-4H31.54A5.54,5.54,0,0,0,26,31.54V42.46A5.54,5.54,0,0,0,31.54,48H42.46A5.54,5.54,0,0,0,48,42.46V31.54A5.54,5.54,0,0,0,42.46,26Z"/></svg>