<svg id="abc87861-d40c-414c-ada2-11edaaa37535" data-name="Ğ¡Ğ»Ğ¾Ğ¹ 1" xmlns="http://www.w3.org/2000/svg" viewBox="0 0 48 48"><title>sidebar_users</title><circle cx="24" cy="20.67" r="6.67" fill="none" stroke="#000" stroke-miterlimit="10" stroke-width="4"/><path d="M26.67,27.33l1.33,4,5,2.53a5.33,5.33,0,0,1,3,4.77V42H12V38.63A5.33,5.33,0,0,1,15,33.86L20,31.33l1.33-4" fill="none" stroke="#000" stroke-linecap="round" stroke-linejoin="round" stroke-width="4"/><ellipse cx="11.08" cy="10.71" rx="5.6" ry="5.71" fill="none" stroke="#000" stroke-miterlimit="10" stroke-width="2"/><path d="M16,29H1V26.11A4.59,4.59,0,0,1,3.48,22l4.24-2.16,1.12-3.43" fill="none" stroke="#000" stroke-linecap="round" stroke-linejoin="round" stroke-width="2"/><line x1="13.32" y1="16.43" x2="14.44" y2="19.86" fill="none" stroke="#000" stroke-linecap="round" stroke-linejoin="round" stroke-width="2"/><ellipse cx="36.92" cy="10.71" rx="5.6" ry="5.71" fill="none" stroke="#000" stroke-miterlimit="10" stroke-width="2"/><path d="M32,29H47V26.11A4.59,4.59,0,0,0,44.52,22l-4.24-2.16-1.12-3.43" fill="none" stroke="#000" stroke-linecap="round" stroke-linejoin="round" stroke-width="2"/><line x1="34.68" y1="16.43" x2="33.56" y2="19.86" fill="none" stroke="#000" stroke-linecap="round" stroke-linejoin="round" stroke-width="2"/></svg>