<svg id="a9e07ba0-f8ba-4987-9469-df816363789f" xmlns="http://www.w3.org/2000/svg" viewBox="0 0 48 48"><title>sidebar_roles</title><circle cx="24" cy="8.56" r="4.44" fill="none" stroke="#000" stroke-miterlimit="10" stroke-width="4"/><path d="M16,21v-.47a3.54,3.54,0,0,1,2-3.18l3.36-1.68L22.22,13" fill="none" stroke="#000" stroke-linecap="round" stroke-linejoin="round" stroke-width="4"/><path d="M25.78,13l.89,2.67L30,17.35a3.54,3.54,0,0,1,2,3.18V21" fill="none" stroke="#000" stroke-linecap="round" stroke-linejoin="round" stroke-width="4"/><line x1="24" y1="21" x2="24" y2="28" fill="none" stroke="#000" stroke-linecap="round" stroke-linejoin="round" stroke-width="2"/><line x1="17.94" y1="31.5" x2="24" y2="28" fill="none" stroke="#000" stroke-linecap="round" stroke-linejoin="round" stroke-width="2"/><line x1="23.94" y1="28" x2="30" y2="31.5" fill="none" stroke="#000" stroke-linecap="round" stroke-linejoin="round" stroke-width="2"/><circle cx="10" cy="31.44" r="4.44" fill="none" stroke="#000" stroke-miterlimit="10" stroke-width="4"/><path d="M2,43.89v-.47a3.54,3.54,0,0,1,2-3.18l3.36-1.68.89-2.67" fill="none" stroke="#000" stroke-linecap="round" stroke-linejoin="round" stroke-width="4"/><path d="M11.78,35.89l.89,2.67L16,40.24a3.54,3.54,0,0,1,2,3.18v.47" fill="none" stroke="#000" stroke-linecap="round" stroke-linejoin="round" stroke-width="4"/><circle cx="38" cy="31.44" r="4.44" fill="none" stroke="#000" stroke-miterlimit="10" stroke-width="4"/><path d="M30,43.89v-.47a3.54,3.54,0,0,1,2-3.18l3.36-1.68.89-2.67" fill="none" stroke="#000" stroke-linecap="round" stroke-linejoin="round" stroke-width="4"/><path d="M39.78,35.89l.89,2.67L44,40.24a3.54,3.54,0,0,1,2,3.18v.47" fill="none" stroke="#000" stroke-linecap="round" stroke-linejoin="round" stroke-width="4"/></svg>
