<svg xmlns="http://www.w3.org/2000/svg" viewBox="0 0 48 48"><title>icon__empty</title><path d="M33.35.75c1.21.59,2.37,2,3.78,4.46a8.74,8.74,0,0,0,1.49,2.18,7.74,7.74,0,0,0,1.51-.56,4,4,0,0,1,1.35-.44c.11.12-.79,1.69-3.31,5.82l-1.91,3.12-5.52,0-5.53.05.9-.56c1.19-.75,1.67-1.22,1.67-1.64A43,43,0,0,0,24.6,7,19,19,0,0,0,19.5.87C19.06.57,19,.52,19.33.4S22.55.28,26.09.3c6.31,0,6.44,0,7.26.45Zm-14.6.64A13.27,13.27,0,0,1,23,5.91a10.84,10.84,0,0,1,.85,1.62c0,.16-5.06,8.53-5.33,8.82a28.64,28.64,0,0,1-3.68-2c-5.12-3-6.42-3.84-6.48-4.16S13.12,2.64,14,1.83A5.26,5.26,0,0,1,15.2,1a5.53,5.53,0,0,1,3.55.41ZM11.21,16.15c.33.13.78.75,1.63,2.27,1.68,3,3.93,7.36,3.84,7.45a6,6,0,0,1-1.37-.55,12.2,12.2,0,0,0-1.44-.62c-.12,0-2.68,4.06-4,6.38-.34.58-.36.59-1.33.48C3.71,31,1.53,30,.38,27.64A2.13,2.13,0,0,1,.12,25.7a29.36,29.36,0,0,1,1.71-4c.83-1.69,1.51-3.09,1.51-3.13S2.69,18,1.91,17.36A5.27,5.27,0,0,1,.59,16.15c.33-.33,9.72-.33,10.62,0Zm32.46.75c.85,1.48,3.28,6.51,3.83,7.92l.5,1.29-.32.85a7.26,7.26,0,0,1-3.59,3.44,13.49,13.49,0,0,1-4.65.9c-1.25,0-1.3,0-1.72-.57-1-1.31-4.67-8.36-4.55-8.71C33.23,21.85,42.77,16,43,16a3.46,3.46,0,0,1,.68.95Zm-13,13.66A10.65,10.65,0,0,0,31,32.14a102.73,102.73,0,0,0,11.86-.29A12.47,12.47,0,0,0,44.92,31a8.52,8.52,0,0,1,1.44-.62c.2,0-.23.85-3.83,7.47a32,32,0,0,1-2.91,4.77c-1,1.06-2.4,1.45-6.06,1.73l-2.83.21L30.6,46c-.07.78-.15,1.54-.17,1.68s-4.09-7-4.89-8.75l-.31-.66,1-1.92c1.84-3.48,3.93-7.21,4-7.21a5.15,5.15,0,0,1,.34,1.4ZM2,30.58C4.26,32,5.71,32.19,14.61,32.19h6.75V44.5H19.27a53.13,53.13,0,0,1-8.69-.64C9,43.46,8.41,43,7.31,41.4,6,39.47.86,30.05,1.09,30.05a7.59,7.59,0,0,1,.93.53Z"/></svg>