<svg xmlns="http://www.w3.org/2000/svg" viewBox="0 0 220 220"><path d="M110.77,218.59a303.4,303.4,0,0,1-67.11-7.65A4.13,4.13,0,0,1,41,209C17.39,169.32,3.6,126.85,0,82.79a4.15,4.15,0,0,1,1-3.06c30.46-34.73,66.59-61,107.38-78a4.08,4.08,0,0,1,3.18,0c40.79,17,76.92,43.27,107.38,78a4.15,4.15,0,0,1,1,3.06c-3.59,44.06-17.38,86.53-41,126.24a4.09,4.09,0,0,1-2.6,1.9A283.14,283.14,0,0,1,110.77,218.59ZM47.22,203.27c42.64,9.4,84.86,9.41,125.55,0C194.89,165.64,208,125.48,211.6,83.87,182.62,51.19,148.45,26.35,110,10,71.55,26.36,37.38,51.19,8.4,83.87,12.05,125.47,25.1,165.62,47.22,203.27Z"/><path d="M138.4,39.78H79A3.1,3.1,0,0,0,79,46H89.08V58.37h41.84V46h4.38V62.25a3.1,3.1,0,1,0,6.2,0V42.88A3.1,3.1,0,0,0,138.4,39.78Z"/><path d="M89.22,66.12a22.23,22.23,0,0,0-.14,2.32,20.92,20.92,0,1,0,41.84,0,22.23,22.23,0,0,0-.14-2.32Z"/><path d="M201.54,85a1.53,1.53,0,0,0-.65-.08l-.37.06c-4.52,1.25-9.11,2.52-13.69,3.73-.92.25-1.83.49-2.75.72-1.82.47-3.65.93-5.47,1.37a175,175,0,0,1-21.11,4c-25.2,2.83-35.62,2.76-47.5,2.76s-22.3.07-47.5-2.76C49.08,93.25,34,89,19.48,85a1.68,1.68,0,0,0-1.1,3.16l12.7,5.42a60.22,60.22,0,0,0-.4,10.11c.58,9.21,5.12,12.92,5.31,13.07a2.58,2.58,0,0,0,1.61.56,2.54,2.54,0,0,0,2-1,2.57,2.57,0,0,0-.38-3.61s-3-2.68-3.39-9.37a50.06,50.06,0,0,1,.21-7.67l6,2.54a49.87,49.87,0,0,1,.58,12.34c-.48,4.5-1.82,6.79-3.25,8.29a.89.89,0,0,0,.63,1.51s16.35-2.06,26.51-2.66c2.57-.16,5.22-.26,7.56-.32a13.67,13.67,0,0,1,13.4,9.31.88.88,0,0,1,0,.15c.1.32.2.64.28,1a2,2,0,0,1,.07.23c.08.31.15.62.22.93l.06.27c.06.3.12.6.17.91a2.87,2.87,0,0,1,0,.31c0,.29.09.58.13.88,0,.11,0,.23,0,.35,0,.28,0,.56.07.85,0,.13,0,.26,0,.39s0,.55,0,.82v.43c0,.26,0,.52,0,.79s0,.31,0,.47,0,.5,0,.75l-.06.51c0,.24,0,.48-.08.72s-.05.36-.08.53-.07.46-.11.69l-.12.57c-.05.22-.09.44-.14.66s-.11.4-.16.6l-.17.62c-.06.21-.14.42-.21.64s-.12.38-.19.57-.17.46-.26.69l-.2.51c-.11.26-.23.52-.35.78l-.18.41c-.19.39-.4.79-.61,1.17-1.27,2.31-2.6,4.62-4,6.85-8.45,13.57-28.75,35.54-28.75,35.54-4.29,4.43,1.88,11.33,7.5,7.28,0,0,18-14,24-18.69l2-1.56c3.09-2.44,6-4.65,8.71-6.63l1.06-.78L98.74,166a19.28,19.28,0,0,1,7.74-3.28c.3-.06.61-.11.91-.15a19,19,0,0,1,2.5-.18h.22a19,19,0,0,1,2.5.18l.91.15a19.28,19.28,0,0,1,7.74,3.28c2.56,1.83,5.45,4,8.56,6.33l1.89,1.45c1.27,1,2.58,2,3.91,3.08,5.92,4.72,24,18.69,24,18.69,5.62,4.05,11.79-2.85,7.5-7.28,0,0-20.3-22-28.75-35.54-1.39-2.23-2.72-4.54-4-6.85-.21-.38-.42-.78-.61-1.17l-.18-.41c-.12-.26-.24-.52-.35-.78L133,143c-.09-.23-.18-.46-.26-.69s-.13-.38-.19-.57-.15-.43-.21-.64l-.17-.62c-.05-.2-.11-.4-.16-.6s-.09-.44-.14-.66l-.12-.57c0-.23-.08-.46-.11-.69s-.06-.35-.08-.53-.06-.48-.08-.72l-.06-.51c0-.25,0-.5,0-.75s0-.32,0-.47,0-.53,0-.79v-.43l0-.82,0-.39c0-.29,0-.57.07-.85,0-.12,0-.24,0-.35,0-.3.08-.59.13-.88a2.87,2.87,0,0,1,.05-.31c0-.31.11-.61.17-.91l.06-.27c.07-.31.14-.62.22-.93a2,2,0,0,1,.07-.23c.08-.32.18-.64.28-1a.88.88,0,0,1,.05-.15,13.67,13.67,0,0,1,13.4-9.31c2.34.06,5,.16,7.56.32,10.16.6,26.51,2.66,26.51,2.66a.89.89,0,0,0,.63-1.51c-1.43-1.5-2.77-3.79-3.25-8.29A49.87,49.87,0,0,1,178,98.21l5.95-2.54a48.76,48.76,0,0,1,.22,7.67c-.41,6.69-3.39,9.36-3.39,9.37a2.58,2.58,0,0,0,3.24,4c.19-.15,4.73-3.86,5.31-13.07a60.22,60.22,0,0,0-.4-10.11l12.7-5.42A1.69,1.69,0,0,0,201.54,85Z"/></svg>
