<svg xmlns="http://www.w3.org/2000/svg" viewBox="0 0 48 48"><title>sidebar_media</title><path d="M35,9h2.8a2,2,0,0,1,1.76,1.06l5.5,12.18A7.94,7.94,0,0,1,46,26V39a2,2,0,0,1-2,2H4a2,2,0,0,1-2-2V26a7.94,7.94,0,0,1,.94-3.76l5.5-12.18A2,2,0,0,1,10.2,9H13" fill="none" stroke="#000" stroke-miterlimit="10" stroke-width="4"/><rect x="18" y="32" width="12" height="4" rx="2" fill="none" stroke="#000" stroke-miterlimit="10" stroke-width="2"/><path d="M13,14V7a2,2,0,0,1,2-2H33a2,2,0,0,1,2,2v7" fill="none" stroke="#000" stroke-miterlimit="10" stroke-width="2"/><path d="M10,24V16a2.33,2.33,0,0,1,2.55-2h22.9A2.33,2.33,0,0,1,38,16v8" fill="none" stroke="#000" stroke-miterlimit="10" stroke-width="2"/><path d="M3,24H13.93a2,2,0,0,1,1.66.89l.82,1.22a2,2,0,0,0,1.66.89H29.93a2,2,0,0,0,1.66-.89l.82-1.22A2,2,0,0,1,34.07,24H45" fill="none" stroke="#000" stroke-miterlimit="10" stroke-width="4"/></svg>