<svg xmlns="http://www.w3.org/2000/svg" viewBox="0 0 120 120"><title>safari-pinned-tab</title><path d="M60.42,119.23a165.69,165.69,0,0,1-36.61-4.17,2.26,2.26,0,0,1-1.44-1A159,159,0,0,1,0,45.16a2.26,2.26,0,0,1,.55-1.67A159.11,159.11,0,0,1,59.13.94a2.28,2.28,0,0,1,1.74,0,159.11,159.11,0,0,1,58.57,42.55,2.26,2.26,0,0,1,.55,1.67A159,159,0,0,1,97.63,114a2.32,2.32,0,0,1-1.42,1A154.86,154.86,0,0,1,60.42,119.23Zm-34.67-8.35a154.6,154.6,0,0,0,68.49,0,154.61,154.61,0,0,0,21.18-65.14A154.56,154.56,0,0,0,60,5.47,154.56,154.56,0,0,0,4.58,45.75,154.55,154.55,0,0,0,25.75,110.88Z"/><path d="M75.49,21.7H43.1a1.69,1.69,0,0,0,0,3.38h5.49v6.76H71.41V25.08H73.8V34a1.69,1.69,0,0,0,3.38,0V23.39A1.69,1.69,0,0,0,75.49,21.7Z"/><path d="M48.67,36.07a10.39,10.39,0,0,0-.08,1.26,11.41,11.41,0,0,0,22.82,0,10.39,10.39,0,0,0-.08-1.26Z"/><path d="M109.93,46.36a.83.83,0,0,0-.35,0l-.2,0c-2.47.68-5,1.37-7.47,2l-1.5.4-3,.74a94.75,94.75,0,0,1-11.52,2.16A190.92,190.92,0,0,1,60,53.19a190.92,190.92,0,0,1-25.91-1.51c-7.32-.82-15.57-3.16-23.47-5.33a.91.91,0,0,0-.6,1.72L17,51a33.23,33.23,0,0,0-.21,5.51c.31,5,2.79,7.05,2.89,7.13a1.41,1.41,0,0,0,.88.31,1.39,1.39,0,0,0,1.1-.53,1.41,1.41,0,0,0-.21-2S19.77,60,19.55,56.37a27,27,0,0,1,.12-4.19l3.24,1.39a26.93,26.93,0,0,1,.32,6.73,7.17,7.17,0,0,1-1.77,4.52.48.48,0,0,0,.34.82s8.92-1.12,14.46-1.45c1.41-.08,2.85-.14,4.13-.17A7.47,7.47,0,0,1,47.7,69.1l0,.08c.06.17.11.35.16.52l0,.13c0,.17.09.34.12.51s0,.09,0,.14l.09.5,0,.17c0,.16.05.32.07.48a1.37,1.37,0,0,0,0,.19c0,.15,0,.31,0,.46s0,.14,0,.22,0,.29,0,.44v.67c0,.08,0,.17,0,.26s0,.27,0,.41l0,.27c0,.13,0,.26,0,.39s0,.2-.05.3l-.06.37-.06.31c0,.12,0,.24-.08.36l-.09.33-.09.34c0,.11-.08.23-.11.34l-.11.32c0,.12-.09.25-.14.37s-.07.19-.11.28l-.19.43a2.14,2.14,0,0,0-.1.22c-.11.22-.21.43-.33.64-.69,1.26-1.42,2.52-2.18,3.73-4.6,7.41-15.68,19.39-15.68,19.39-2.34,2.42,1,6.18,4.09,4,0,0,9.85-7.62,13.07-10.19l1.08-.86c1.69-1.32,3.29-2.53,4.76-3.61.19-.14.38-.29.57-.42l1.43-1a12.32,12.32,0,0,1,1.43-.86,10.41,10.41,0,0,1,2.79-.93l.5-.08a10.24,10.24,0,0,1,1.36-.1h.12a10.24,10.24,0,0,1,1.36.1l.5.08a10.41,10.41,0,0,1,2.79.93,12.32,12.32,0,0,1,1.43.86c1.4,1,3,2.16,4.67,3.46l1,.79L74,96.45C77.2,99,87.05,106.64,87.05,106.64c3.06,2.21,6.43-1.55,4.09-4,0,0-11.08-12-15.68-19.39-.76-1.21-1.49-2.47-2.18-3.73-.12-.21-.23-.42-.33-.64l-.1-.22-.19-.43c0-.09-.07-.18-.11-.28s-.1-.25-.14-.37l-.11-.32c0-.11-.07-.23-.11-.34l-.09-.34L72,76.28c0-.12-.05-.24-.08-.36l-.06-.31-.06-.37c0-.1,0-.2,0-.3s0-.26,0-.39l0-.27c0-.14,0-.28,0-.41s0-.18,0-.26v-.67c0-.15,0-.3,0-.44s0-.15,0-.22,0-.31,0-.46a1.37,1.37,0,0,0,0-.19c0-.16.05-.32.07-.48l0-.17.09-.5a.57.57,0,0,1,0-.14c0-.17.08-.34.12-.51l0-.13c0-.17.1-.35.16-.52l0-.08A7.47,7.47,0,0,1,79.61,64c1.28,0,2.72.09,4.13.17,5.54.33,14.46,1.45,14.46,1.45a.48.48,0,0,0,.34-.82,7.17,7.17,0,0,1-1.77-4.52,26.93,26.93,0,0,1,.32-6.73l3.24-1.39a27,27,0,0,1,.12,4.19c-.22,3.65-1.85,5.11-1.85,5.11a1.41,1.41,0,0,0-.21,2,1.39,1.39,0,0,0,1.1.53,1.41,1.41,0,0,0,.88-.31c.1-.08,2.58-2.1,2.89-7.13a33.23,33.23,0,0,0-.21-5.51l6.93-3A.92.92,0,0,0,109.93,46.36Z"/></svg>